<svg xmlns="http://www.w3.org/2000/svg" viewBox="0 0 400 200" width="400" height="200"><rect x="0" y="0" width="400" height="200" fill="#0a0a0f"/><g transform="translate(50 50)"><rect x="0" y="0" width="100" height="50" fill="#0a0a0f" rx="10"/><path d="M10 10h80v30h-80z" fill="#00ff41" opacity="0.2"/><path d="M15 15h70v20h-70z" fill="#00ff41" opacity="0.4"/><path d="M20 20h60v10h-60z" fill="#00ff41" opacity="0.6"/><path d="M5 5h90v40h-90z" fill="#0a0a0f" stroke="#00ff41" stroke-width="2" opacity="0.8"/><rect x="120" y="0" width="50" height="50" fill="#0a0a0f"/><rect x="130" y="10" width="30" height="30" fill="#00ff41" rx="5"/><rect x="140" y="20" width="10" height="10" fill="#0a0a0f" rx="2"/><text x="180" y="40" font-family="monospace" font-size="24" fill="#00ff41">ESP32 SECURITY</text></g><path d="M350 150h20v20h-20z" fill="#0a0a0f" transform="rotate(45 350 150)"/><path d="M340 160h40v10h-40z" fill="#00ff41" transform="rotate(45 350 160)"/><rect x="320" y="140" width="60" height="10" fill="#0a0a0f" rx="2"/><rect x="330" y="150" width="40" height="5" fill="#00ff41" rx="1"/></svg>